<svg xmlns="http://www.w3.org/2000/svg" viewBox="0 0 1200 800" role="img" aria-labelledby="title desc">
<title id="title">Analytics performance dashboard evidence</title>
<desc id="desc">Client reporting visual showing 17,000 clicks over 90 days, 420,000 impressions, 4.05 percent CTR and average position 12.4.</desc>
<defs><linearGradient id="bg" x1="0" y1="0" x2="1" y2="1"><stop stop-color="#07111e"/><stop offset="1" stop-color="#102b43"/></linearGradient><linearGradient id="bar" x1="0" y1="1" x2="0" y2="0"><stop stop-color="#22d3ee"/><stop offset="1" stop-color="#06b6d4"/></linearGradient></defs>
<rect width="1200" height="800" rx="36" fill="url(#bg)"/>
<rect x="35" y="35" width="830" height="505" rx="26" fill="#071522" stroke="#35d7ef" stroke-opacity=".65"/>
<rect x="885" y="35" width="280" height="505" rx="26" fill="#071522" stroke="#35d7ef" stroke-opacity=".65"/>
<text x="75" y="90" fill="#f8fafc" font-family="Arial,sans-serif" font-size="34" font-weight="700">Website Performance</text>
<text x="75" y="130" fill="#94a3b8" font-family="Arial,sans-serif" font-size="16">Analytics reporting snapshot · 90 days</text>
<rect x="640" y="70" width="190" height="105" rx="16" fill="#0b1d2d" stroke="#334155"/>
<text x="658" y="102" fill="#cbd5e1" font-family="Arial,sans-serif" font-size="16">Total Clicks</text>
<text x="658" y="143" fill="#22d3ee" font-family="Arial,sans-serif" font-size="36" font-weight="700">17,000</text>
<text x="658" y="163" fill="#e2e8f0" font-family="Arial,sans-serif" font-size="13">Mar 24 – Jun 24</text>
<line x1="85" y1="460" x2="825" y2="460" stroke="#64748b" stroke-opacity=".5"/><line x1="85" y1="385" x2="825" y2="385" stroke="#64748b" stroke-opacity=".3" stroke-dasharray="5 8"/><line x1="85" y1="310" x2="825" y2="310" stroke="#64748b" stroke-opacity=".3" stroke-dasharray="5 8"/><line x1="85" y1="235" x2="825" y2="235" stroke="#64748b" stroke-opacity=".3" stroke-dasharray="5 8"/>
<text x="62" y="466" fill="#94a3b8" font-family="Arial,sans-serif" font-size="14">0</text><text x="48" y="391" fill="#94a3b8" font-family="Arial,sans-serif" font-size="14">5K</text><text x="42" y="316" fill="#94a3b8" font-family="Arial,sans-serif" font-size="14">10K</text><text x="42" y="241" fill="#94a3b8" font-family="Arial,sans-serif" font-size="14">15K</text>
<g fill="url(#bar)"><rect x="105" y="405" width="28" height="55" rx="5"/><rect x="150" y="380" width="28" height="80" rx="5"/><rect x="195" y="350" width="28" height="110" rx="5"/><rect x="240" y="365" width="28" height="95" rx="5"/><rect x="285" y="330" width="28" height="130" rx="5"/><rect x="330" y="300" width="28" height="160" rx="5"/><rect x="375" y="315" width="28" height="145" rx="5"/><rect x="420" y="290" width="28" height="170" rx="5"/><rect x="465" y="270" width="28" height="190" rx="5"/><rect x="510" y="305" width="28" height="155" rx="5"/><rect x="555" y="255" width="28" height="205" rx="5"/><rect x="600" y="220" width="28" height="240" rx="5"/><rect x="645" y="245" width="28" height="215" rx="5"/><rect x="690" y="210" width="28" height="250" rx="5"/><rect x="735" y="180" width="28" height="280" rx="5"/><rect x="780" y="145" width="28" height="315" rx="5"/></g>
<polyline points="105,360 150,345 195,325 240,330 285,290 330,310 375,275 420,285 465,260 510,245 555,255 600,220 645,235 690,190 735,170 780,185 825,155" fill="none" stroke="#fbbf24" stroke-width="4"/><polyline points="105,410 150,395 195,380 240,388 285,345 330,325 375,345 420,320 465,310 510,285 555,295 600,265 645,280 690,240 735,215 780,220 825,180" fill="none" stroke="#38bdf8" stroke-width="3"/>
<text x="700" y="500" fill="#94a3b8" font-family="Arial,sans-serif" font-size="14">Mar</text><text x="475" y="500" fill="#94a3b8" font-family="Arial,sans-serif" font-size="14">Apr</text><text x="625" y="500" fill="#94a3b8" font-family="Arial,sans-serif" font-size="14">May</text><text x="790" y="500" fill="#94a3b8" font-family="Arial,sans-serif" font-size="14">Jun</text>
<text x="75" y="585" fill="#f8fafc" font-family="Arial,sans-serif" font-size="28" font-weight="700">Key reporting metrics</text>
<rect x="35" y="610" width="1130" height="145" rx="24" fill="#081624" stroke="#334155"/>
<g font-family="Arial,sans-serif" font-size="18"><text x="70" y="650" fill="#cbd5e1">Organic clicks</text><text x="280" y="650" fill="#22d3ee" font-weight="700">17,000</text><text x="410" y="650" fill="#34d399">+128%</text><text x="520" y="650" fill="#cbd5e1">Impressions</text><text x="720" y="650" fill="#22d3ee" font-weight="700">420,000</text><text x="875" y="650" fill="#34d399">+95%</text><text x="70" y="695" fill="#cbd5e1">Average CTR</text><text x="280" y="695" fill="#22d3ee" font-weight="700">4.05%</text><text x="410" y="695" fill="#34d399">+72%</text><text x="520" y="695" fill="#cbd5e1">Average position</text><text x="720" y="695" fill="#22d3ee" font-weight="700">12.4</text><text x="875" y="695" fill="#34d399">+18%</text></g>
</svg>